; NON-PLATED HOLES START AT T1
; THROUGH (PLATED) HOLES START AT T100
M48
INCH
T100C0.031497
T101C0.038000
T102C0.035000
%
T100
X017827Y012013
X017827Y040482
X030327Y008998
X010311Y017498
X026327Y017498
X030327Y008013
X017827Y030998
X017827Y039498
X017827Y020998
X009327Y017498
X017827Y030013
X022827Y026498
X005327Y008998
X017827Y020013
X013311Y026498
X005327Y008013
X012327Y026498
X021843Y026498
X025343Y017498
X017827Y012998
T101
X021327Y002998
X023327Y002998
X020327Y002998
X022327Y002998
X015327Y001998
X013327Y001998
X011327Y001998
X018327Y001998
X016327Y001998
X014327Y001998
X012327Y001998
X019327Y001998
X017327Y001998
X023327Y001998
X021327Y001998
X022327Y001998
X020327Y001998
X011327Y002998
X013327Y002998
X015327Y002998
X012327Y002998
X014327Y002998
X016327Y002998
X018327Y002998
X017327Y002998
X019327Y002998
T102
X007327Y007998
X017827Y027998
X017827Y018498
X011827Y017498
X014827Y026498
X021827Y020498
X028327Y007998
X017827Y023998
X025327Y014998
X017827Y014498
X015827Y037998
X024327Y007998
X015827Y041998
X011827Y013498
X014827Y022498
X017827Y006498
X021827Y024498
X025327Y010998
X017827Y010498
X011327Y007998
T00
M30
