G04 MADE WITH FRITZING*
G04 WWW.FRITZING.ORG*
G04 DOUBLE SIDED*
G04 HOLES PLATED*
G04 CONTOUR ON CENTER OF CONTOUR VECTOR*
%ASAXBY*%
%FSLAX23Y23*%
%MOIN*%
%OFA0B0*%
%SFA1.0B1.0*%
%ADD10C,0.072992*%
%ADD11C,0.085000*%
%ADD12C,0.096614*%
%ADD13R,0.072992X0.072992*%
%ADD14R,0.001000X0.001000*%
%LNMASK1*%
G90*
G70*
G54D10*
X942Y2169D03*
X942Y2071D03*
X1343Y771D03*
X1442Y771D03*
G54D11*
X1342Y571D03*
X1342Y171D03*
X742Y1921D03*
G54D10*
X490Y771D03*
X392Y771D03*
G54D11*
X642Y771D03*
X642Y371D03*
G54D12*
X892Y971D03*
G54D13*
X942Y2169D03*
X1343Y771D03*
X490Y771D03*
G54D14*
X703Y2304D02*
X779Y2304D01*
X703Y2303D02*
X779Y2303D01*
X704Y2302D02*
X778Y2302D01*
X704Y2301D02*
X778Y2301D01*
X705Y2300D02*
X777Y2300D01*
X705Y2299D02*
X776Y2299D01*
X706Y2298D02*
X776Y2298D01*
X707Y2297D02*
X775Y2297D01*
X707Y2296D02*
X774Y2296D01*
X708Y2295D02*
X774Y2295D01*
X709Y2294D02*
X773Y2294D01*
X710Y2293D02*
X772Y2293D01*
X711Y2292D02*
X771Y2292D01*
X712Y2291D02*
X770Y2291D01*
X713Y2290D02*
X769Y2290D01*
X714Y2289D02*
X768Y2289D01*
X715Y2288D02*
X766Y2288D01*
X717Y2287D02*
X765Y2287D01*
X718Y2286D02*
X764Y2286D01*
X720Y2285D02*
X762Y2285D01*
X721Y2284D02*
X760Y2284D01*
X723Y2283D02*
X758Y2283D01*
X725Y2282D02*
X756Y2282D01*
X728Y2281D02*
X753Y2281D01*
X732Y2280D02*
X750Y2280D01*
X739Y2279D02*
X742Y2279D01*
D02*
G04 End of Mask1*
M02*