G04 MADE WITH FRITZING*
G04 WWW.FRITZING.ORG*
G04 DOUBLE SIDED*
G04 HOLES PLATED*
G04 CONTOUR ON CENTER OF CONTOUR VECTOR*
%ASAXBY*%
%FSLAX23Y23*%
%MOIN*%
%OFA0B0*%
%SFA1.0B1.0*%
%ADD10C,0.062992*%
%ADD11C,0.075000*%
%ADD12R,0.062992X0.062992*%
%ADD13C,0.024000*%
%ADD14R,0.001000X0.001000*%
%LNCOPPER0*%
G90*
G70*
G54D10*
X942Y2169D03*
X942Y2071D03*
X1343Y771D03*
X1442Y771D03*
G54D11*
X1342Y571D03*
X1342Y171D03*
X742Y1921D03*
G54D10*
X490Y771D03*
X392Y771D03*
G54D11*
X642Y771D03*
X642Y371D03*
G54D12*
X942Y2169D03*
X1343Y771D03*
X490Y771D03*
G54D13*
X1440Y324D02*
X1442Y744D01*
D02*
X1343Y744D02*
X1342Y599D01*
D02*
X517Y771D02*
X613Y771D01*
D02*
X494Y671D02*
X411Y752D01*
D02*
X495Y369D02*
X494Y671D01*
D02*
X951Y2046D02*
X1432Y796D01*
D02*
X402Y796D02*
X941Y2073D01*
D02*
X941Y2073D02*
X1432Y796D01*
G54D14*
X708Y2304D02*
X739Y2304D01*
X743Y2304D02*
X773Y2304D01*
X836Y2304D02*
X864Y2304D01*
X709Y2303D02*
X773Y2303D01*
X837Y2303D02*
X865Y2303D01*
X709Y2302D02*
X772Y2302D01*
X838Y2302D02*
X865Y2302D01*
X710Y2301D02*
X772Y2301D01*
X838Y2301D02*
X866Y2301D01*
X711Y2300D02*
X771Y2300D01*
X839Y2300D02*
X867Y2300D01*
X711Y2299D02*
X770Y2299D01*
X840Y2299D02*
X868Y2299D01*
X712Y2298D02*
X770Y2298D01*
X840Y2298D02*
X868Y2298D01*
X713Y2297D02*
X769Y2297D01*
X841Y2297D02*
X869Y2297D01*
X714Y2296D02*
X768Y2296D01*
X842Y2296D02*
X870Y2296D01*
X715Y2295D02*
X767Y2295D01*
X842Y2295D02*
X870Y2295D01*
X716Y2294D02*
X766Y2294D01*
X843Y2294D02*
X871Y2294D01*
X717Y2293D02*
X765Y2293D01*
X844Y2293D02*
X872Y2293D01*
X718Y2292D02*
X763Y2292D01*
X844Y2292D02*
X872Y2292D01*
X720Y2291D02*
X762Y2291D01*
X845Y2291D02*
X873Y2291D01*
X721Y2290D02*
X761Y2290D01*
X846Y2290D02*
X874Y2290D01*
X723Y2289D02*
X759Y2289D01*
X846Y2289D02*
X874Y2289D01*
X725Y2288D02*
X757Y2288D01*
X847Y2288D02*
X875Y2288D01*
X727Y2287D02*
X755Y2287D01*
X848Y2287D02*
X876Y2287D01*
X730Y2286D02*
X752Y2286D01*
X848Y2286D02*
X876Y2286D01*
X733Y2285D02*
X749Y2285D01*
X849Y2285D02*
X877Y2285D01*
X739Y2284D02*
X742Y2284D01*
X850Y2284D02*
X878Y2284D01*
X850Y2283D02*
X878Y2283D01*
X851Y2282D02*
X879Y2282D01*
X852Y2281D02*
X880Y2281D01*
X852Y2280D02*
X880Y2280D01*
X853Y2279D02*
X881Y2279D01*
X854Y2278D02*
X882Y2278D01*
X854Y2277D02*
X882Y2277D01*
X855Y2276D02*
X883Y2276D01*
X856Y2275D02*
X884Y2275D01*
X856Y2274D02*
X884Y2274D01*
X857Y2273D02*
X885Y2273D01*
X858Y2272D02*
X886Y2272D01*
X858Y2271D02*
X886Y2271D01*
X859Y2270D02*
X887Y2270D01*
X860Y2269D02*
X888Y2269D01*
X861Y2268D02*
X888Y2268D01*
X861Y2267D02*
X889Y2267D01*
X862Y2266D02*
X890Y2266D01*
X863Y2265D02*
X890Y2265D01*
X863Y2264D02*
X891Y2264D01*
X864Y2263D02*
X892Y2263D01*
X865Y2262D02*
X893Y2262D01*
X865Y2261D02*
X893Y2261D01*
X866Y2260D02*
X894Y2260D01*
X867Y2259D02*
X895Y2259D01*
X867Y2258D02*
X895Y2258D01*
X868Y2257D02*
X896Y2257D01*
X869Y2256D02*
X897Y2256D01*
X869Y2255D02*
X897Y2255D01*
X870Y2254D02*
X898Y2254D01*
X871Y2253D02*
X899Y2253D01*
X871Y2252D02*
X899Y2252D01*
X872Y2251D02*
X900Y2251D01*
X873Y2250D02*
X901Y2250D01*
X873Y2249D02*
X901Y2249D01*
X874Y2248D02*
X902Y2248D01*
X875Y2247D02*
X903Y2247D01*
X875Y2246D02*
X903Y2246D01*
X876Y2245D02*
X904Y2245D01*
X877Y2244D02*
X905Y2244D01*
X877Y2243D02*
X905Y2243D01*
X878Y2242D02*
X906Y2242D01*
X879Y2241D02*
X907Y2241D01*
X879Y2240D02*
X907Y2240D01*
X880Y2239D02*
X908Y2239D01*
X881Y2238D02*
X909Y2238D01*
X881Y2237D02*
X909Y2237D01*
X882Y2236D02*
X910Y2236D01*
X883Y2235D02*
X911Y2235D01*
X883Y2234D02*
X911Y2234D01*
X884Y2233D02*
X912Y2233D01*
X885Y2232D02*
X913Y2232D01*
X885Y2231D02*
X913Y2231D01*
X886Y2230D02*
X914Y2230D01*
X887Y2229D02*
X915Y2229D01*
X888Y2228D02*
X915Y2228D01*
X888Y2227D02*
X916Y2227D01*
X889Y2226D02*
X917Y2226D01*
X890Y2225D02*
X917Y2225D01*
X890Y2224D02*
X918Y2224D01*
X891Y2223D02*
X919Y2223D01*
X892Y2222D02*
X920Y2222D01*
X892Y2221D02*
X920Y2221D01*
X893Y2220D02*
X921Y2220D01*
X894Y2219D02*
X922Y2219D01*
X894Y2218D02*
X922Y2218D01*
X895Y2217D02*
X923Y2217D01*
X896Y2216D02*
X924Y2216D01*
X896Y2215D02*
X924Y2215D01*
X897Y2214D02*
X925Y2214D01*
X898Y2213D02*
X926Y2213D01*
X898Y2212D02*
X926Y2212D01*
X899Y2211D02*
X927Y2211D01*
X900Y2210D02*
X928Y2210D01*
X900Y2209D02*
X928Y2209D01*
X901Y2208D02*
X929Y2208D01*
X902Y2207D02*
X930Y2207D01*
X902Y2206D02*
X930Y2206D01*
X903Y2205D02*
X931Y2205D01*
X904Y2204D02*
X932Y2204D01*
X904Y2203D02*
X932Y2203D01*
X905Y2202D02*
X933Y2202D01*
X906Y2201D02*
X934Y2201D01*
X906Y2200D02*
X934Y2200D01*
X907Y2199D02*
X935Y2199D01*
X908Y2198D02*
X936Y2198D01*
X908Y2197D02*
X936Y2197D01*
X909Y2196D02*
X937Y2196D01*
X910Y2195D02*
X937Y2195D01*
X910Y2194D02*
X937Y2194D01*
X911Y2193D02*
X937Y2193D01*
X912Y2192D02*
X937Y2192D01*
X912Y2191D02*
X937Y2191D01*
X913Y2190D02*
X937Y2190D01*
X914Y2189D02*
X937Y2189D01*
X915Y2188D02*
X936Y2188D01*
X915Y2187D02*
X936Y2187D01*
X916Y2186D02*
X936Y2186D01*
X917Y2185D02*
X935Y2185D01*
X917Y2184D02*
X934Y2184D01*
X919Y2183D02*
X933Y2183D01*
X920Y2182D02*
X932Y2182D01*
X922Y2181D02*
X930Y2181D01*
X492Y382D02*
X497Y382D01*
X490Y381D02*
X500Y381D01*
X488Y380D02*
X501Y380D01*
X487Y379D02*
X502Y379D01*
X486Y378D02*
X503Y378D01*
X485Y377D02*
X504Y377D01*
X484Y376D02*
X505Y376D01*
X483Y375D02*
X505Y375D01*
X483Y374D02*
X506Y374D01*
X482Y373D02*
X506Y373D01*
X481Y372D02*
X506Y372D01*
X480Y371D02*
X506Y371D01*
X479Y370D02*
X506Y370D01*
X479Y369D02*
X506Y369D01*
X478Y368D02*
X506Y368D01*
X477Y367D02*
X506Y367D01*
X476Y366D02*
X505Y366D01*
X475Y365D02*
X505Y365D01*
X475Y364D02*
X504Y364D01*
X474Y363D02*
X504Y363D01*
X473Y362D02*
X503Y362D01*
X472Y361D02*
X502Y361D01*
X471Y360D02*
X501Y360D01*
X470Y359D02*
X500Y359D01*
X470Y358D02*
X500Y358D01*
X469Y357D02*
X499Y357D01*
X468Y356D02*
X498Y356D01*
X467Y355D02*
X497Y355D01*
X466Y354D02*
X496Y354D01*
X466Y353D02*
X495Y353D01*
X465Y352D02*
X495Y352D01*
X464Y351D02*
X494Y351D01*
X463Y350D02*
X493Y350D01*
X462Y349D02*
X492Y349D01*
X462Y348D02*
X491Y348D01*
X461Y347D02*
X491Y347D01*
X460Y346D02*
X490Y346D01*
X459Y345D02*
X489Y345D01*
X458Y344D02*
X488Y344D01*
X457Y343D02*
X487Y343D01*
X457Y342D02*
X487Y342D01*
X456Y341D02*
X486Y341D01*
X455Y340D02*
X485Y340D01*
X454Y339D02*
X484Y339D01*
X453Y338D02*
X483Y338D01*
X453Y337D02*
X483Y337D01*
X452Y336D02*
X482Y336D01*
X1435Y336D02*
X1443Y336D01*
X451Y335D02*
X481Y335D01*
X1433Y335D02*
X1445Y335D01*
X450Y334D02*
X480Y334D01*
X1432Y334D02*
X1446Y334D01*
X449Y333D02*
X479Y333D01*
X1431Y333D02*
X1448Y333D01*
X449Y332D02*
X478Y332D01*
X1430Y332D02*
X1449Y332D01*
X448Y331D02*
X478Y331D01*
X1429Y331D02*
X1450Y331D01*
X447Y330D02*
X477Y330D01*
X1429Y330D02*
X1451Y330D01*
X446Y329D02*
X476Y329D01*
X1428Y329D02*
X1452Y329D01*
X445Y328D02*
X475Y328D01*
X1428Y328D02*
X1453Y328D01*
X445Y327D02*
X474Y327D01*
X1428Y327D02*
X1454Y327D01*
X444Y326D02*
X474Y326D01*
X1428Y326D02*
X1455Y326D01*
X443Y325D02*
X473Y325D01*
X1428Y325D02*
X1456Y325D01*
X442Y324D02*
X472Y324D01*
X1428Y324D02*
X1457Y324D01*
X441Y323D02*
X471Y323D01*
X1428Y323D02*
X1458Y323D01*
X440Y322D02*
X470Y322D01*
X1428Y322D02*
X1459Y322D01*
X440Y321D02*
X470Y321D01*
X1428Y321D02*
X1460Y321D01*
X439Y320D02*
X469Y320D01*
X1429Y320D02*
X1461Y320D01*
X438Y319D02*
X468Y319D01*
X1429Y319D02*
X1462Y319D01*
X437Y318D02*
X467Y318D01*
X1430Y318D02*
X1463Y318D01*
X436Y317D02*
X466Y317D01*
X1431Y317D02*
X1464Y317D01*
X436Y316D02*
X466Y316D01*
X1432Y316D02*
X1465Y316D01*
X435Y315D02*
X465Y315D01*
X1433Y315D02*
X1466Y315D01*
X434Y314D02*
X464Y314D01*
X1434Y314D02*
X1467Y314D01*
X433Y313D02*
X463Y313D01*
X1435Y313D02*
X1468Y313D01*
X432Y312D02*
X462Y312D01*
X1436Y312D02*
X1469Y312D01*
X432Y311D02*
X461Y311D01*
X1437Y311D02*
X1470Y311D01*
X431Y310D02*
X461Y310D01*
X1438Y310D02*
X1471Y310D01*
X430Y309D02*
X460Y309D01*
X1439Y309D02*
X1472Y309D01*
X429Y308D02*
X459Y308D01*
X1440Y308D02*
X1473Y308D01*
X428Y307D02*
X458Y307D01*
X1441Y307D02*
X1474Y307D01*
X428Y306D02*
X457Y306D01*
X1442Y306D02*
X1475Y306D01*
X427Y305D02*
X457Y305D01*
X1443Y305D02*
X1476Y305D01*
X426Y304D02*
X456Y304D01*
X1444Y304D02*
X1477Y304D01*
X425Y303D02*
X455Y303D01*
X1445Y303D02*
X1478Y303D01*
X424Y302D02*
X454Y302D01*
X1446Y302D02*
X1479Y302D01*
X423Y301D02*
X453Y301D01*
X1447Y301D02*
X1480Y301D01*
X423Y300D02*
X453Y300D01*
X1448Y300D02*
X1481Y300D01*
X422Y299D02*
X452Y299D01*
X1449Y299D02*
X1482Y299D01*
X421Y298D02*
X451Y298D01*
X1450Y298D02*
X1483Y298D01*
X420Y297D02*
X450Y297D01*
X1451Y297D02*
X1484Y297D01*
X419Y296D02*
X449Y296D01*
X1452Y296D02*
X1485Y296D01*
X419Y295D02*
X448Y295D01*
X1453Y295D02*
X1486Y295D01*
X418Y294D02*
X448Y294D01*
X1454Y294D02*
X1487Y294D01*
X417Y293D02*
X447Y293D01*
X1455Y293D02*
X1488Y293D01*
X416Y292D02*
X446Y292D01*
X1456Y292D02*
X1489Y292D01*
X415Y291D02*
X445Y291D01*
X1457Y291D02*
X1490Y291D01*
X415Y290D02*
X444Y290D01*
X1458Y290D02*
X1491Y290D01*
X414Y289D02*
X444Y289D01*
X1459Y289D02*
X1492Y289D01*
X413Y288D02*
X443Y288D01*
X1460Y288D02*
X1493Y288D01*
X412Y287D02*
X442Y287D01*
X1461Y287D02*
X1494Y287D01*
X411Y286D02*
X441Y286D01*
X1462Y286D02*
X1495Y286D01*
X410Y285D02*
X440Y285D01*
X1463Y285D02*
X1496Y285D01*
X410Y284D02*
X440Y284D01*
X1464Y284D02*
X1497Y284D01*
X409Y283D02*
X439Y283D01*
X1465Y283D02*
X1498Y283D01*
X408Y282D02*
X438Y282D01*
X1466Y282D02*
X1499Y282D01*
X407Y281D02*
X437Y281D01*
X1467Y281D02*
X1500Y281D01*
X406Y280D02*
X436Y280D01*
X1468Y280D02*
X1501Y280D01*
X406Y279D02*
X436Y279D01*
X1469Y279D02*
X1502Y279D01*
X405Y278D02*
X435Y278D01*
X1470Y278D02*
X1503Y278D01*
X404Y277D02*
X434Y277D01*
X1471Y277D02*
X1504Y277D01*
X403Y276D02*
X433Y276D01*
X1472Y276D02*
X1505Y276D01*
X402Y275D02*
X432Y275D01*
X1473Y275D02*
X1506Y275D01*
X402Y274D02*
X431Y274D01*
X1474Y274D02*
X1507Y274D01*
X401Y273D02*
X431Y273D01*
X1475Y273D02*
X1508Y273D01*
X400Y272D02*
X430Y272D01*
X1476Y272D02*
X1509Y272D01*
X399Y271D02*
X429Y271D01*
X1477Y271D02*
X1510Y271D01*
X398Y270D02*
X428Y270D01*
X1478Y270D02*
X1511Y270D01*
X398Y269D02*
X427Y269D01*
X1479Y269D02*
X1512Y269D01*
X397Y268D02*
X427Y268D01*
X1480Y268D02*
X1513Y268D01*
X396Y267D02*
X426Y267D01*
X1481Y267D02*
X1514Y267D01*
X395Y266D02*
X425Y266D01*
X1482Y266D02*
X1515Y266D01*
X394Y265D02*
X424Y265D01*
X1483Y265D02*
X1516Y265D01*
X393Y264D02*
X423Y264D01*
X1484Y264D02*
X1517Y264D01*
X393Y263D02*
X423Y263D01*
X1485Y263D02*
X1518Y263D01*
X392Y262D02*
X422Y262D01*
X1486Y262D02*
X1519Y262D01*
X391Y261D02*
X421Y261D01*
X1487Y261D02*
X1520Y261D01*
X390Y260D02*
X420Y260D01*
X1488Y260D02*
X1521Y260D01*
X389Y259D02*
X419Y259D01*
X1489Y259D02*
X1522Y259D01*
X389Y258D02*
X418Y258D01*
X1490Y258D02*
X1523Y258D01*
X388Y257D02*
X418Y257D01*
X1491Y257D02*
X1524Y257D01*
X387Y256D02*
X417Y256D01*
X1492Y256D02*
X1525Y256D01*
X386Y255D02*
X416Y255D01*
X1493Y255D02*
X1526Y255D01*
X385Y254D02*
X415Y254D01*
X1494Y254D02*
X1527Y254D01*
X385Y253D02*
X414Y253D01*
X1495Y253D02*
X1528Y253D01*
X384Y252D02*
X414Y252D01*
X1496Y252D02*
X1529Y252D01*
X383Y251D02*
X413Y251D01*
X1497Y251D02*
X1530Y251D01*
X382Y250D02*
X412Y250D01*
X1498Y250D02*
X1531Y250D01*
X381Y249D02*
X411Y249D01*
X1499Y249D02*
X1532Y249D01*
X380Y248D02*
X410Y248D01*
X1500Y248D02*
X1533Y248D01*
X380Y247D02*
X410Y247D01*
X1501Y247D02*
X1534Y247D01*
X379Y246D02*
X409Y246D01*
X1502Y246D02*
X1535Y246D01*
X378Y245D02*
X408Y245D01*
X1503Y245D02*
X1536Y245D01*
X377Y244D02*
X407Y244D01*
X1504Y244D02*
X1537Y244D01*
X376Y243D02*
X406Y243D01*
X1505Y243D02*
X1538Y243D01*
X376Y242D02*
X406Y242D01*
X1506Y242D02*
X1539Y242D01*
X375Y241D02*
X405Y241D01*
X1507Y241D02*
X1540Y241D01*
X374Y240D02*
X404Y240D01*
X1508Y240D02*
X1541Y240D01*
X373Y239D02*
X403Y239D01*
X1509Y239D02*
X1542Y239D01*
X372Y238D02*
X402Y238D01*
X1510Y238D02*
X1543Y238D01*
X372Y237D02*
X401Y237D01*
X1511Y237D02*
X1544Y237D01*
X371Y236D02*
X401Y236D01*
X1512Y236D02*
X1545Y236D01*
X370Y235D02*
X400Y235D01*
X1513Y235D02*
X1546Y235D01*
X369Y234D02*
X399Y234D01*
X1514Y234D02*
X1547Y234D01*
X368Y233D02*
X398Y233D01*
X1515Y233D02*
X1548Y233D01*
X368Y232D02*
X397Y232D01*
X1516Y232D02*
X1549Y232D01*
X367Y231D02*
X397Y231D01*
X1517Y231D02*
X1550Y231D01*
X366Y230D02*
X396Y230D01*
X1518Y230D02*
X1551Y230D01*
X365Y229D02*
X395Y229D01*
X1519Y229D02*
X1552Y229D01*
X364Y228D02*
X394Y228D01*
X1520Y228D02*
X1553Y228D01*
X363Y227D02*
X393Y227D01*
X1521Y227D02*
X1554Y227D01*
X363Y226D02*
X393Y226D01*
X1522Y226D02*
X1555Y226D01*
X362Y225D02*
X392Y225D01*
X1523Y225D02*
X1556Y225D01*
X361Y224D02*
X391Y224D01*
X1524Y224D02*
X1557Y224D01*
X360Y223D02*
X390Y223D01*
X1525Y223D02*
X1558Y223D01*
X359Y222D02*
X389Y222D01*
X1526Y222D02*
X1559Y222D01*
X359Y221D02*
X389Y221D01*
X1527Y221D02*
X1560Y221D01*
X358Y220D02*
X388Y220D01*
X1528Y220D02*
X1561Y220D01*
X357Y219D02*
X387Y219D01*
X1529Y219D02*
X1562Y219D01*
X356Y218D02*
X386Y218D01*
X1530Y218D02*
X1563Y218D01*
X355Y217D02*
X385Y217D01*
X1531Y217D02*
X1564Y217D01*
X355Y216D02*
X384Y216D01*
X1532Y216D02*
X1565Y216D01*
X354Y215D02*
X384Y215D01*
X1533Y215D02*
X1566Y215D01*
X353Y214D02*
X383Y214D01*
X1534Y214D02*
X1567Y214D01*
X352Y213D02*
X382Y213D01*
X1535Y213D02*
X1568Y213D01*
X351Y212D02*
X381Y212D01*
X1536Y212D02*
X1569Y212D01*
X351Y211D02*
X380Y211D01*
X1537Y211D02*
X1570Y211D01*
X350Y210D02*
X380Y210D01*
X1538Y210D02*
X1571Y210D01*
X349Y209D02*
X379Y209D01*
X1539Y209D02*
X1572Y209D01*
X348Y208D02*
X378Y208D01*
X1540Y208D02*
X1573Y208D01*
X347Y207D02*
X377Y207D01*
X1541Y207D02*
X1574Y207D01*
X346Y206D02*
X376Y206D01*
X1542Y206D02*
X1575Y206D01*
X346Y205D02*
X376Y205D01*
X1543Y205D02*
X1576Y205D01*
X345Y204D02*
X375Y204D01*
X1544Y204D02*
X1577Y204D01*
X344Y203D02*
X374Y203D01*
X1545Y203D02*
X1578Y203D01*
X343Y202D02*
X373Y202D01*
X1546Y202D02*
X1579Y202D01*
X342Y201D02*
X372Y201D01*
X1547Y201D02*
X1580Y201D01*
X342Y200D02*
X371Y200D01*
X1548Y200D02*
X1581Y200D01*
X341Y199D02*
X371Y199D01*
X1549Y199D02*
X1582Y199D01*
X340Y198D02*
X370Y198D01*
X1550Y198D02*
X1583Y198D01*
X339Y197D02*
X369Y197D01*
X1551Y197D02*
X1584Y197D01*
X338Y196D02*
X368Y196D01*
X1552Y196D02*
X1585Y196D01*
X338Y195D02*
X367Y195D01*
X1553Y195D02*
X1586Y195D01*
X337Y194D02*
X367Y194D01*
X1554Y194D02*
X1587Y194D01*
X336Y193D02*
X366Y193D01*
X1555Y193D02*
X1588Y193D01*
X335Y192D02*
X365Y192D01*
X1556Y192D02*
X1589Y192D01*
X334Y191D02*
X364Y191D01*
X1557Y191D02*
X1590Y191D01*
X333Y190D02*
X363Y190D01*
X1558Y190D02*
X1591Y190D01*
X333Y189D02*
X363Y189D01*
X1559Y189D02*
X1592Y189D01*
X332Y188D02*
X362Y188D01*
X1560Y188D02*
X1593Y188D01*
X331Y187D02*
X361Y187D01*
X1561Y187D02*
X1594Y187D01*
X330Y186D02*
X360Y186D01*
X1562Y186D02*
X1595Y186D01*
X329Y185D02*
X359Y185D01*
X1563Y185D02*
X1596Y185D01*
X329Y184D02*
X359Y184D01*
X1564Y184D02*
X1597Y184D01*
X328Y183D02*
X358Y183D01*
X1565Y183D02*
X1598Y183D01*
X327Y182D02*
X357Y182D01*
X1566Y182D02*
X1599Y182D01*
X326Y181D02*
X356Y181D01*
X1567Y181D02*
X1600Y181D01*
X325Y180D02*
X355Y180D01*
X1568Y180D02*
X1601Y180D01*
X325Y179D02*
X354Y179D01*
X1569Y179D02*
X1602Y179D01*
X324Y178D02*
X354Y178D01*
X1570Y178D02*
X1603Y178D01*
X323Y177D02*
X353Y177D01*
X1571Y177D02*
X1604Y177D01*
X322Y176D02*
X352Y176D01*
X1572Y176D02*
X1605Y176D01*
X321Y175D02*
X351Y175D01*
X1573Y175D02*
X1606Y175D01*
X321Y174D02*
X350Y174D01*
X1574Y174D02*
X1607Y174D01*
X320Y173D02*
X350Y173D01*
X1575Y173D02*
X1608Y173D01*
X319Y172D02*
X349Y172D01*
X1576Y172D02*
X1609Y172D01*
X318Y171D02*
X348Y171D01*
X1577Y171D02*
X1610Y171D01*
X317Y170D02*
X347Y170D01*
X1578Y170D02*
X1611Y170D01*
X316Y169D02*
X346Y169D01*
X1579Y169D02*
X1612Y169D01*
X316Y168D02*
X346Y168D01*
X1580Y168D02*
X1613Y168D01*
X315Y167D02*
X345Y167D01*
X1581Y167D02*
X1614Y167D01*
X314Y166D02*
X344Y166D01*
X1582Y166D02*
X1615Y166D01*
X313Y165D02*
X343Y165D01*
X1583Y165D02*
X1616Y165D01*
X312Y164D02*
X342Y164D01*
X1584Y164D02*
X1617Y164D01*
X312Y163D02*
X342Y163D01*
X1585Y163D02*
X1618Y163D01*
X311Y162D02*
X341Y162D01*
X1586Y162D02*
X1619Y162D01*
X310Y161D02*
X340Y161D01*
X1587Y161D02*
X1620Y161D01*
X309Y160D02*
X339Y160D01*
X1588Y160D02*
X1621Y160D01*
X308Y159D02*
X338Y159D01*
X1589Y159D02*
X1622Y159D01*
X308Y158D02*
X337Y158D01*
X1590Y158D02*
X1623Y158D01*
X307Y157D02*
X337Y157D01*
X1591Y157D02*
X1624Y157D01*
X306Y156D02*
X336Y156D01*
X1592Y156D02*
X1625Y156D01*
X305Y155D02*
X335Y155D01*
X1593Y155D02*
X1626Y155D01*
X304Y154D02*
X334Y154D01*
X1594Y154D02*
X1627Y154D01*
X304Y153D02*
X333Y153D01*
X1595Y153D02*
X1628Y153D01*
X303Y152D02*
X333Y152D01*
X1596Y152D02*
X1629Y152D01*
X302Y151D02*
X332Y151D01*
X1597Y151D02*
X1630Y151D01*
X301Y150D02*
X331Y150D01*
X1598Y150D02*
X1631Y150D01*
X300Y149D02*
X330Y149D01*
X1599Y149D02*
X1632Y149D01*
X299Y148D02*
X329Y148D01*
X1600Y148D02*
X1633Y148D01*
X299Y147D02*
X329Y147D01*
X1601Y147D02*
X1634Y147D01*
X298Y146D02*
X328Y146D01*
X1602Y146D02*
X1635Y146D01*
X297Y145D02*
X327Y145D01*
X1603Y145D02*
X1636Y145D01*
X296Y144D02*
X326Y144D01*
X1604Y144D02*
X1637Y144D01*
X295Y143D02*
X325Y143D01*
X1605Y143D02*
X1638Y143D01*
X295Y142D02*
X324Y142D01*
X1606Y142D02*
X1639Y142D01*
X294Y141D02*
X324Y141D01*
X1607Y141D02*
X1640Y141D01*
X293Y140D02*
X323Y140D01*
X1608Y140D02*
X1641Y140D01*
X292Y139D02*
X322Y139D01*
X1609Y139D02*
X1642Y139D01*
X291Y138D02*
X321Y138D01*
X1610Y138D02*
X1643Y138D01*
X291Y137D02*
X320Y137D01*
X1611Y137D02*
X1644Y137D01*
X290Y136D02*
X320Y136D01*
X1612Y136D02*
X1645Y136D01*
X289Y135D02*
X319Y135D01*
X1613Y135D02*
X1646Y135D01*
X288Y134D02*
X318Y134D01*
X1614Y134D02*
X1647Y134D01*
X287Y133D02*
X317Y133D01*
X1615Y133D02*
X1648Y133D01*
X286Y132D02*
X316Y132D01*
X1616Y132D02*
X1649Y132D01*
X286Y131D02*
X316Y131D01*
X1617Y131D02*
X1650Y131D01*
X285Y130D02*
X315Y130D01*
X1618Y130D02*
X1651Y130D01*
X284Y129D02*
X314Y129D01*
X1619Y129D02*
X1652Y129D01*
X283Y128D02*
X313Y128D01*
X1620Y128D02*
X1653Y128D01*
X282Y127D02*
X312Y127D01*
X1621Y127D02*
X1654Y127D01*
X282Y126D02*
X312Y126D01*
X1622Y126D02*
X1655Y126D01*
X281Y125D02*
X311Y125D01*
X1623Y125D02*
X1656Y125D01*
X280Y124D02*
X310Y124D01*
X1624Y124D02*
X1657Y124D01*
X279Y123D02*
X309Y123D01*
X1625Y123D02*
X1658Y123D01*
X278Y122D02*
X308Y122D01*
X1626Y122D02*
X1659Y122D01*
X278Y121D02*
X307Y121D01*
X1627Y121D02*
X1660Y121D01*
X277Y120D02*
X307Y120D01*
X1628Y120D02*
X1661Y120D01*
X276Y119D02*
X306Y119D01*
X1629Y119D02*
X1662Y119D01*
X275Y118D02*
X305Y118D01*
X1630Y118D02*
X1663Y118D01*
X274Y117D02*
X304Y117D01*
X1631Y117D02*
X1664Y117D01*
X274Y116D02*
X303Y116D01*
X1632Y116D02*
X1665Y116D01*
X273Y115D02*
X303Y115D01*
X1633Y115D02*
X1666Y115D01*
X272Y114D02*
X302Y114D01*
X1634Y114D02*
X1667Y114D01*
X271Y113D02*
X301Y113D01*
X1635Y113D02*
X1668Y113D01*
X270Y112D02*
X300Y112D01*
X1636Y112D02*
X1669Y112D01*
X269Y111D02*
X299Y111D01*
X1637Y111D02*
X1670Y111D01*
X269Y110D02*
X299Y110D01*
X1638Y110D02*
X1671Y110D01*
X268Y109D02*
X298Y109D01*
X1639Y109D02*
X1672Y109D01*
X267Y108D02*
X297Y108D01*
X1640Y108D02*
X1673Y108D01*
X266Y107D02*
X296Y107D01*
X1641Y107D02*
X1674Y107D01*
X265Y106D02*
X295Y106D01*
X1642Y106D02*
X1675Y106D01*
X265Y105D02*
X294Y105D01*
X1643Y105D02*
X1676Y105D01*
X264Y104D02*
X294Y104D01*
X1644Y104D02*
X1677Y104D01*
X263Y103D02*
X293Y103D01*
X1645Y103D02*
X1678Y103D01*
X262Y102D02*
X292Y102D01*
X1646Y102D02*
X1679Y102D01*
X261Y101D02*
X291Y101D01*
X1647Y101D02*
X1680Y101D01*
X261Y100D02*
X290Y100D01*
X1648Y100D02*
X1681Y100D01*
X260Y99D02*
X290Y99D01*
X1649Y99D02*
X1682Y99D01*
X259Y98D02*
X289Y98D01*
X1650Y98D02*
X1683Y98D01*
X258Y97D02*
X288Y97D01*
X1651Y97D02*
X1684Y97D01*
X257Y96D02*
X287Y96D01*
X1652Y96D02*
X1685Y96D01*
X257Y95D02*
X286Y95D01*
X1653Y95D02*
X1686Y95D01*
X256Y94D02*
X286Y94D01*
X1654Y94D02*
X1687Y94D01*
X255Y93D02*
X285Y93D01*
X1655Y93D02*
X1688Y93D01*
X254Y92D02*
X284Y92D01*
X1656Y92D02*
X1689Y92D01*
X253Y91D02*
X283Y91D01*
X1657Y91D02*
X1690Y91D01*
X252Y90D02*
X282Y90D01*
X1658Y90D02*
X1691Y90D01*
X252Y89D02*
X282Y89D01*
X1659Y89D02*
X1692Y89D01*
X251Y88D02*
X281Y88D01*
X1660Y88D02*
X1693Y88D01*
X250Y87D02*
X280Y87D01*
X1661Y87D02*
X1694Y87D01*
X249Y86D02*
X279Y86D01*
X1662Y86D02*
X1695Y86D01*
X248Y85D02*
X278Y85D01*
X1663Y85D02*
X1696Y85D01*
X248Y84D02*
X277Y84D01*
X1664Y84D02*
X1697Y84D01*
X247Y83D02*
X277Y83D01*
X1665Y83D02*
X1698Y83D01*
X246Y82D02*
X276Y82D01*
X1666Y82D02*
X1699Y82D01*
X245Y81D02*
X275Y81D01*
X1667Y81D02*
X1700Y81D01*
X244Y80D02*
X274Y80D01*
X1668Y80D02*
X1701Y80D01*
X244Y79D02*
X273Y79D01*
X1669Y79D02*
X1702Y79D01*
X243Y78D02*
X273Y78D01*
X1670Y78D02*
X1703Y78D01*
X242Y77D02*
X272Y77D01*
X1671Y77D02*
X1704Y77D01*
X241Y76D02*
X271Y76D01*
X1672Y76D02*
X1705Y76D01*
X240Y75D02*
X270Y75D01*
X1673Y75D02*
X1706Y75D01*
X239Y74D02*
X269Y74D01*
X1674Y74D02*
X1707Y74D01*
X239Y73D02*
X269Y73D01*
X1675Y73D02*
X1708Y73D01*
X238Y72D02*
X268Y72D01*
X1676Y72D02*
X1709Y72D01*
X237Y71D02*
X267Y71D01*
X1677Y71D02*
X1710Y71D01*
X236Y70D02*
X266Y70D01*
X1678Y70D02*
X1711Y70D01*
X235Y69D02*
X265Y69D01*
X1679Y69D02*
X1712Y69D01*
X235Y68D02*
X265Y68D01*
X1680Y68D02*
X1713Y68D01*
X234Y67D02*
X264Y67D01*
X1681Y67D02*
X1714Y67D01*
X233Y66D02*
X263Y66D01*
X1682Y66D02*
X1715Y66D01*
X232Y65D02*
X262Y65D01*
X1683Y65D02*
X1716Y65D01*
X231Y64D02*
X261Y64D01*
X1684Y64D02*
X1717Y64D01*
X231Y63D02*
X260Y63D01*
X1685Y63D02*
X1718Y63D01*
X230Y62D02*
X260Y62D01*
X1686Y62D02*
X1719Y62D01*
X229Y61D02*
X259Y61D01*
X1687Y61D02*
X1720Y61D01*
X228Y60D02*
X258Y60D01*
X1688Y60D02*
X1721Y60D01*
X227Y59D02*
X257Y59D01*
X1689Y59D02*
X1722Y59D01*
X227Y58D02*
X256Y58D01*
X1690Y58D02*
X1723Y58D01*
X226Y57D02*
X256Y57D01*
X1691Y57D02*
X1724Y57D01*
X225Y56D02*
X255Y56D01*
X1692Y56D02*
X1725Y56D01*
X224Y55D02*
X254Y55D01*
X1693Y55D02*
X1726Y55D01*
X223Y54D02*
X253Y54D01*
X1694Y54D02*
X1727Y54D01*
X222Y53D02*
X252Y53D01*
X1695Y53D02*
X1728Y53D01*
X222Y52D02*
X252Y52D01*
X1696Y52D02*
X1729Y52D01*
X221Y51D02*
X251Y51D01*
X1697Y51D02*
X1730Y51D01*
X220Y50D02*
X250Y50D01*
X1698Y50D02*
X1731Y50D01*
X219Y49D02*
X249Y49D01*
X1699Y49D02*
X1732Y49D01*
X218Y48D02*
X248Y48D01*
X1700Y48D02*
X1733Y48D01*
X218Y47D02*
X247Y47D01*
X1701Y47D02*
X1734Y47D01*
X217Y46D02*
X247Y46D01*
X1702Y46D02*
X1735Y46D01*
X216Y45D02*
X246Y45D01*
X1703Y45D02*
X1736Y45D01*
X215Y44D02*
X245Y44D01*
X1704Y44D02*
X1737Y44D01*
X214Y43D02*
X244Y43D01*
X1705Y43D02*
X1738Y43D01*
X214Y42D02*
X243Y42D01*
X1706Y42D02*
X1739Y42D01*
X213Y41D02*
X243Y41D01*
X1707Y41D02*
X1740Y41D01*
X212Y40D02*
X242Y40D01*
X1708Y40D02*
X1741Y40D01*
X211Y39D02*
X241Y39D01*
X1709Y39D02*
X1742Y39D01*
X210Y38D02*
X240Y38D01*
X1710Y38D02*
X1743Y38D01*
X209Y37D02*
X239Y37D01*
X1711Y37D02*
X1744Y37D01*
X209Y36D02*
X239Y36D01*
X1712Y36D02*
X1745Y36D01*
X208Y35D02*
X238Y35D01*
X1713Y35D02*
X1746Y35D01*
X207Y34D02*
X237Y34D01*
X1714Y34D02*
X1747Y34D01*
X206Y33D02*
X236Y33D01*
X1715Y33D02*
X1748Y33D01*
X205Y32D02*
X235Y32D01*
X1716Y32D02*
X1749Y32D01*
X205Y31D02*
X235Y31D01*
X1717Y31D02*
X1750Y31D01*
X204Y30D02*
X234Y30D01*
X1718Y30D02*
X1751Y30D01*
X203Y29D02*
X233Y29D01*
X1719Y29D02*
X1752Y29D01*
X202Y28D02*
X232Y28D01*
X1720Y28D02*
X1753Y28D01*
X201Y27D02*
X231Y27D01*
X1721Y27D02*
X1754Y27D01*
X201Y26D02*
X230Y26D01*
X1722Y26D02*
X1755Y26D01*
X200Y25D02*
X230Y25D01*
X1723Y25D02*
X1756Y25D01*
X199Y24D02*
X229Y24D01*
X1724Y24D02*
X1757Y24D01*
X198Y23D02*
X228Y23D01*
X1725Y23D02*
X1758Y23D01*
X197Y22D02*
X227Y22D01*
X1726Y22D02*
X1759Y22D01*
X197Y21D02*
X226Y21D01*
X1727Y21D02*
X1760Y21D01*
X196Y20D02*
X226Y20D01*
X1728Y20D02*
X1761Y20D01*
X195Y19D02*
X225Y19D01*
X1729Y19D02*
X1762Y19D01*
X194Y18D02*
X224Y18D01*
X1730Y18D02*
X1763Y18D01*
X193Y17D02*
X223Y17D01*
X1731Y17D02*
X1764Y17D01*
X192Y16D02*
X222Y16D01*
X1732Y16D02*
X1765Y16D01*
X192Y15D02*
X222Y15D01*
X1733Y15D02*
X1766Y15D01*
X191Y14D02*
X221Y14D01*
X1734Y14D02*
X1767Y14D01*
X190Y13D02*
X220Y13D01*
X1735Y13D02*
X1768Y13D01*
X189Y12D02*
X219Y12D01*
X1736Y12D02*
X1769Y12D01*
X188Y11D02*
X218Y11D01*
X1737Y11D02*
X1770Y11D01*
X188Y10D02*
X218Y10D01*
X1738Y10D02*
X1771Y10D01*
X187Y9D02*
X217Y9D01*
X186Y8D02*
X216Y8D01*
X185Y7D02*
X215Y7D01*
X184Y6D02*
X214Y6D01*
X184Y5D02*
X213Y5D01*
X183Y4D02*
X213Y4D01*
X182Y3D02*
X212Y3D01*
X181Y2D02*
X211Y2D01*
X180Y1D02*
X210Y1D01*
X180Y0D02*
X209Y0D01*
D02*
G04 End of Copper0*
M02*