G04 MADE WITH FRITZING*
G04 WWW.FRITZING.ORG*
G04 DOUBLE SIDED*
G04 HOLES PLATED*
G04 CONTOUR ON CENTER OF CONTOUR VECTOR*
%ASAXBY*%
%FSLAX23Y23*%
%MOIN*%
%OFA0B0*%
%SFA1.0B1.0*%
%ADD10C,0.062992*%
%ADD11C,0.075000*%
%ADD12C,0.078000*%
%ADD13R,0.062992X0.062992*%
%LNCOPPER1*%
G90*
G70*
G54D10*
X1783Y4048D03*
X1783Y3950D03*
X1031Y1750D03*
X933Y1750D03*
X2184Y2650D03*
X2283Y2650D03*
G54D11*
X1183Y1750D03*
X1183Y1350D03*
X2183Y2450D03*
X2183Y2050D03*
X1583Y4200D03*
X1583Y3800D03*
X2533Y1500D03*
X2533Y1100D03*
G54D10*
X2534Y1750D03*
X2633Y1750D03*
G54D11*
X2833Y800D03*
X2433Y800D03*
G54D10*
X3033Y801D03*
X3033Y900D03*
X533Y801D03*
X533Y900D03*
G54D11*
X733Y800D03*
X1133Y800D03*
G54D10*
X1331Y2650D03*
X1233Y2650D03*
G54D11*
X1483Y2650D03*
X1483Y2250D03*
G54D10*
X1783Y1201D03*
X1783Y1300D03*
X1783Y2001D03*
X1783Y2100D03*
X1783Y3001D03*
X1783Y3100D03*
G54D11*
X1783Y2800D03*
X1783Y2400D03*
X1783Y1850D03*
X1783Y1450D03*
X1783Y1050D03*
X1783Y650D03*
G54D12*
X1133Y200D03*
X1233Y200D03*
X1333Y200D03*
X1433Y200D03*
X1533Y200D03*
X1633Y200D03*
X1733Y200D03*
X1833Y200D03*
X1933Y200D03*
X2033Y200D03*
X2133Y200D03*
X2233Y200D03*
X2333Y200D03*
X1133Y200D03*
X1233Y200D03*
X1333Y200D03*
X1433Y200D03*
X1533Y200D03*
X1633Y200D03*
X1733Y200D03*
X1833Y200D03*
X1933Y200D03*
X2033Y200D03*
X2133Y200D03*
X2233Y200D03*
X2333Y200D03*
X2333Y300D03*
X2233Y300D03*
X2133Y300D03*
X2033Y300D03*
X1933Y300D03*
X1833Y300D03*
X1733Y300D03*
X1633Y300D03*
X1533Y300D03*
X1433Y300D03*
X1333Y300D03*
X1233Y300D03*
X1133Y300D03*
G54D13*
X1783Y4048D03*
X1031Y1750D03*
X2184Y2650D03*
X2534Y1750D03*
X3033Y801D03*
X533Y801D03*
X1331Y2650D03*
X1783Y1201D03*
X1783Y2001D03*
X1783Y3001D03*
G04 End of Copper1*
M02*