<?xml version="1.0" encoding="UTF-8" standalone="no"?>
<svg width="426px" height="554px" viewBox="0 0 426 554" version="1.1" xmlns="http://www.w3.org/2000/svg" xmlns:xlink="http://www.w3.org/1999/xlink">
    <!-- Generator: Sketch 41.2 (35397) - http://www.bohemiancoding.com/sketch -->
    <title>Combined-Shape</title>
    <desc>Created with Sketch.</desc>
    <defs></defs>
    <g id="Page-1" stroke="none" stroke-width="1" fill="none" fill-rule="evenodd">
        <g id="outline" transform="translate(-2.000000, -2.000000)" fill="#D8D8D8">
            <g id="Page-1">
                <g id="outline">
                    <g id="Page-1">
                        <g id="Artboard">
                            <g id="Group">
                                <path d="M321.476014,259.693014 C322.869973,262.071697 321.759825,264 318.996806,264 L284.445183,264 C281.681995,264 280.935353,265.668512 282.771934,267.720494 L373.670055,369.279506 C375.509133,371.334278 374.759761,373 371.999114,373 L329.473363,373 C326.71145,373 326.046122,374.595603 327.983567,376.560081 L426.48891,476.439919 C428.428032,478.406097 427.766183,480 425.009539,480 L259.57818,480 C256.822024,480 254.587719,482.233377 254.587719,485.001259 L254.587719,550.998741 C254.587719,553.76086 252.353243,556 249.578571,556 L181.421429,556 C178.654953,556 176.412281,553.766623 176.412281,550.998741 L176.412281,485.001259 C176.412281,482.23914 174.181778,480 171.416774,480 L4.9955071,480 C2.23656471,480 1.5736447,478.404397 3.51108954,476.439919 L102.016433,376.560081 C103.955555,374.593903 103.287284,373 100.526637,373 L58.0008858,373 C55.2389728,373 54.4933644,371.331488 56.329945,369.279506 L147.228066,267.720494 C149.067144,265.665722 148.317836,264 145.554817,264 L111.003194,264 C108.240006,264 107.134224,262.064535 108.525564,259.690322 L199.278963,104.826723 C200.673793,102.446554 199.790816,101.512036 197.323354,102.731229 L180.893454,110.849378 C178.418571,112.072238 176.813637,110.864236 177.309035,108.149581 L182.980617,77.0707622 C183.475881,74.3568454 182.221725,70.6399989 180.187965,68.7768164 L155.944148,46.5664026 C153.906546,44.6996996 154.481982,42.8822679 157.204081,42.5105158 L191.006801,37.894141 C193.740245,37.5208395 196.993104,35.2434835 198.284491,32.7842387 L213.171649,4.43398022 C214.457562,1.98516056 216.536964,1.97473536 217.828351,4.43398022 L232.715509,32.7842387 C234.001422,35.2330583 237.2711,37.5223889 239.993199,37.894141 L273.795919,42.5105158 C276.529363,42.8838173 277.089612,44.7032201 275.055852,46.5664026 L250.812035,68.7768164 C248.774433,70.6435194 247.523985,74.3561073 248.019383,77.0707622 L253.690965,108.149581 C254.186229,110.863498 252.573377,112.068259 250.102032,110.847147 L232.273585,102.037966 C229.796209,100.813874 228.918494,101.750825 230.311884,104.128537 L321.476014,259.693014 Z" id="Combined-Shape"></path>
                            </g>
                        </g>
                    </g>
                </g>
            </g>
        </g>
    </g>
</svg>